<svg xmlns="http://www.w3.org/2000/svg" width="228" height="43" viewBox="0 0 228 43">
    <g fill="none" fill-rule="evenodd">
        <g fill="#EFC148" fill-rule="nonzero">
            <g>
                <g>
                    <g>
                        <path d="M22.069 25.526L13.643 19.503 5.218 25.526 8.425 15.775 0 9.752 10.437 9.752 13.643 0 16.85 9.752 27.287 9.752 18.862 15.775z" transform="translate(-326 -339) translate(326 339.25) translate(32)"/>
                    </g>
                    <g>
                        <path d="M22.069 25.526L13.643 19.503 5.218 25.526 8.425 15.775 0 9.752 10.437 9.752 13.643 0 16.85 9.752 27.287 9.752 18.862 15.775z" transform="translate(-326 -339) translate(326 339.25) translate(32) translate(34)"/>
                    </g>
                    <g>
                        <path d="M22.069 25.526L13.643 19.503 5.218 25.526 8.425 15.775 0 9.752 10.437 9.752 13.643 0 16.85 9.752 27.287 9.752 18.862 15.775z" transform="translate(-326 -339) translate(326 339.25) translate(32) translate(68)"/>
                    </g>
                    <g>
                        <path d="M22.069 25.526L13.643 19.503 5.218 25.526 8.425 15.775 0 9.752 10.437 9.752 13.643 0 16.85 9.752 27.287 9.752 18.862 15.775z" transform="translate(-326 -339) translate(326 339.25) translate(32) translate(102)"/>
                    </g>
                    <g>
                        <path d="M22.069 25.526L13.643 19.503 5.218 25.526 8.425 15.775 0 9.752 10.437 9.752 13.643 0 16.85 9.752 27.287 9.752 18.862 15.775z" transform="translate(-326 -339) translate(326 339.25) translate(32) translate(136)"/>
                    </g>
                </g>
            </g>
        </g>
    </g>
</svg>
