<?xml version="1.0" encoding="iso-8859-1"?>
<!-- Uploaded to: SVG Repo, www.svgrepo.com, Generator: SVG Repo Mixer Tools -->
<!DOCTYPE svg PUBLIC "-//W3C//DTD SVG 1.1//EN" "http://www.w3.org/Graphics/SVG/1.1/DTD/svg11.dtd">
<svg fill="#000000" height="800px" width="800px" version="1.1" id="Capa_1" xmlns="http://www.w3.org/2000/svg" xmlns:xlink="http://www.w3.org/1999/xlink" 
	 viewBox="0 0 495.505 495.505" xml:space="preserve">
<g>
	<path d="M331.438,344.309l-3.799-33.129H37.56c-2.438,0-4.432-1.988-4.432-4.432V98.997c0-2.443,1.994-4.436,4.432-4.436h355.56
		c2.442,0,4.431,1.992,4.431,4.436V220.22c10.434-4.508,22.698-4.508,33.127,0V98.997c0-20.705-16.853-37.564-37.558-37.564H37.56
		C16.855,61.432,0,78.292,0,98.997v207.752c0,20.705,16.855,37.56,37.56,37.56h116.765v18.117
		c-23.406,2.398-41.814,22.016-41.814,46.057v13.168c0,6.859,5.559,12.422,12.424,12.422h180.801c6.86,0,12.424-5.563,12.424-12.422
		v-13.168c0-24.004-18.345-43.598-41.705-46.057v-18.117H331.438z M293.313,408.483l-155.955,0.744v-0.744
		c0-11.953,9.738-21.689,21.69-21.689h112.57C283.57,386.794,293.313,396.53,293.313,408.483z"/>
	<path d="M414.115,249.374c-1.355,0-2.732,0.305-3.947,0.908l-47.865,23.498c-3.395,1.668-5.387,5.307-4.949,9.059l5.142,44.647
		h51.62v77.973c2.525,0,5.046-0.973,6.729-2.914l39.889-45.568c1.232-1.377,1.979-3.053,2.168-4.867l2.834-24.637h-51.619V249.374z"
		/>
	<path d="M476.75,251.72l-47.867-23.492c-9.121-4.492-20.416-4.492-29.536,0l-47.884,23.492
		c-12.697,6.242-20.141,19.875-18.52,33.936l7.971,69.266c0.775,6.781,3.563,13.086,8.076,18.246l39.889,45.553
		c6.357,7.279,15.561,11.455,25.236,11.455c9.672,0,18.878-4.176,25.234-11.455l39.889-45.553c4.514-5.16,7.299-11.465,8.076-18.246
		l7.971-69.266C496.906,271.595,489.463,257.962,476.75,251.72z M471.039,353.046c-0.387,3.479-1.811,6.695-4.124,9.334
		l-39.891,45.568c-6.5,7.424-19.313,7.424-25.821-0.016l-39.887-45.553c-2.316-2.639-3.738-5.855-4.128-9.334l-7.971-69.264
		c-0.829-7.186,2.974-14.158,9.478-17.363l47.866-23.5c2.344-1.137,4.949-1.752,7.553-1.752c2.603,0,5.206,0.615,7.551,1.752
		l47.867,23.5c6.506,3.205,10.307,10.178,9.482,17.363L471.039,353.046z"/>
</g>
</svg>