<?xml version="1.0" encoding="UTF-8" standalone="no"?>
<!-- Uploaded to: SVG Repo, www.svgrepo.com, Generator: SVG Repo Mixer Tools -->

<svg
   fill="#000000"
   height="800"
   width="800"
   version="1.1"
   id="Capa_1"
   viewBox="0 0 476 476"
   xml:space="preserve"
   sodipodi:docname="shield-white.svg"
   inkscape:version="1.4 (86a8ad7, 2024-10-11)"
   xmlns:inkscape="http://www.inkscape.org/namespaces/inkscape"
   xmlns:sodipodi="http://sodipodi.sourceforge.net/DTD/sodipodi-0.dtd"
   xmlns="http://www.w3.org/2000/svg"
   xmlns:svg="http://www.w3.org/2000/svg"><sodipodi:namedview
   id="namedview1"
   pagecolor="#ffffff"
   bordercolor="#000000"
   borderopacity="0.25"
   inkscape:showpageshadow="2"
   inkscape:pageopacity="0.0"
   inkscape:pagecheckerboard="0"
   inkscape:deskcolor="#d1d1d1"
   inkscape:zoom="1.01875"
   inkscape:cx="400"
   inkscape:cy="400"
   inkscape:window-width="1920"
   inkscape:window-height="1017"
   inkscape:window-x="1912"
   inkscape:window-y="-8"
   inkscape:window-maximized="1"
   inkscape:current-layer="Capa_1" /><defs
   id="defs2"><rect
     x="257.17792"
     y="267.97546"
     width="539.87732"
     height="239.5092"
     id="rect4" /></defs>

<g
   id="g3"
   transform="matrix(0.33914454,0,0,0.31043061,-3.9139488,157.6927)"
   style="fill:#ffffff;fill-opacity:1"><path
     d="m 442.138,11.508 c -1.107,-4.625 -4.342,-8.45 -8.718,-10.312 -4.376,-1.862 -9.375,-1.537 -13.476,0.875 -53.767,31.626 -120.569,31.628 -174.34,0 -4.692,-2.762 -10.516,-2.762 -15.21,0 -53.768,31.627 -120.571,31.627 -174.339,0 C 51.956,-0.341 46.956,-0.663 42.58,1.196 38.204,3.057 34.969,6.883 33.862,11.508 -4.815,173.094 55.859,342.213 188.436,442.359 l 40.522,30.61 c 2.675,2.021 5.857,3.031 9.041,3.031 3.183,0 6.367,-1.011 9.042,-3.031 l 40.522,-30.61 C 420.141,342.213 480.815,173.094 442.138,11.508 Z M 269.482,418.421 238,442.201 206.519,418.421 C 88.624,329.366 31.987,181.539 59.004,37.407 115.969,63.545 182.278,61.805 238,32.185 c 55.724,29.62 122.03,31.361 178.996,5.222 27.017,144.132 -29.62,291.959 -147.514,381.014 z"
     id="path1"
     style="fill:#ffffff;fill-opacity:1" /><path
     d="m 397.194,71.145 c -2.409,-1.708 -5.451,-2.265 -8.304,-1.519 -18.303,4.766 -37.182,7.183 -56.114,7.183 -30.958,0 -62.325,-6.672 -90.712,-19.296 -2.588,-1.15 -5.54,-1.15 -8.127,0 -28.386,12.624 -59.753,19.296 -90.711,19.296 -18.933,0 -37.813,-2.417 -56.115,-7.183 -2.857,-0.745 -5.896,-0.188 -8.303,1.519 -2.407,1.707 -3.938,4.391 -4.183,7.332 -4.871,58.737 4.658,118.513 27.557,172.864 25.044,59.444 65.5,111.425 116.995,150.323 l 12.797,9.666 c 1.783,1.347 3.905,2.021 6.027,2.021 2.122,0 4.244,-0.674 6.027,-2.021 l 12.796,-9.666 c 51.496,-38.899 91.952,-90.881 116.996,-150.323 22.898,-54.352 32.428,-114.127 27.557,-172.864 -0.245,-2.942 -1.775,-5.625 -4.183,-7.332 z m -41.806,172.43 c -23.678,56.202 -61.93,105.351 -110.619,142.13 l -6.769,5.114 -6.77,-5.113 C 182.542,348.928 144.29,299.78 120.611,243.576 100.465,195.758 91.263,143.499 93.792,91.724 c 16.242,3.377 32.819,5.085 49.433,5.085 32.266,0 64.934,-6.648 94.775,-19.259 29.842,12.61 62.51,19.259 94.775,19.259 16.613,0 33.19,-1.708 49.433,-5.085 2.529,51.774 -6.673,104.033 -26.82,151.851 z"
     id="path2"
     style="fill:#ffffff;fill-opacity:1" /><path
     style="fill:#ffffff;fill-opacity:1;stroke-width:0.598561"
     d="M 90.549778,90.527608 89.958714,129.6589 c 10e-7,1.75215 0.117952,3.50817 3e-6,5.25644 -0.07972,1.18159 -0.394041,2.33619 -0.591061,3.50429 -0.197021,1.55747 -0.497786,3.10552 -0.591062,4.67239 -0.424258,7.12682 0.671741,13.9652 1.182123,21.02577 0.239433,3.31229 0.17279,6.68742 1.182123,9.92884 0.441265,1.41709 1.298696,2.68176 1.773184,4.08834 0.317686,0.94175 0.302389,1.96942 0.591061,2.92024 2.265717,7.46279 4.656428,14.91482 5.319555,22.77792 0.584596,6.93198 -0.872542,14.12827 0,21.02577 0.100796,0.7965 0.490307,1.53969 0.591063,2.33619 0.09776,0.77272 -0.154554,1.57259 0,2.3362 2.267217,11.2016 9.350417,22.46079 15.367597,32.1227 2.04879,3.2898 4.90572,6.38052 6.50167,9.92883 0.32993,0.73352 0.30584,1.58461 0.59106,2.3362 0.85535,2.25386 2.25513,4.9671 3.54638,7.00859 2.35547,3.72404 1.46581,0.84097 2.9553,5.25644 0.90715,2.68916 1.33446,5.531 2.36425,8.17669 1.56791,4.0282 1.71821,2.81159 3.54636,6.42454 0.94898,1.87543 1.33373,4.00755 2.36425,5.84049 1.33076,2.36695 3.57928,3.83425 5.31956,5.84049 1.10298,1.27154 1.85232,2.81679 2.95531,4.08834 2.68777,3.09853 1.80236,1.60999 4.72849,4.08834 2.07864,1.76056 3.69991,4.25179 5.91061,5.8405 2.298,1.65144 5.08351,2.687 7.09274,4.67239 0.50231,0.49634 0.67982,1.2558 1.18212,1.75215 1.47766,1.46012 3.84191,2.04417 5.31956,3.50429 0.69657,0.68831 1.07661,1.64789 1.77318,2.3362 2.0019,1.97815 4.65058,3.06148 6.50168,5.25644 0.45477,0.53924 0.67982,1.2558 1.18212,1.75215 3.91352,3.86708 0.9205,-0.31023 4.13743,3.50429 0.9851,1.1681 2.06091,2.26699 2.9553,3.50429 0.51214,0.70848 0.67,1.62772 1.18213,2.3362 1.34165,1.85602 3.24702,3.49977 4.72849,5.25644 2.34029,2.77503 4.78037,5.8815 7.6838,8.17669 2.00298,1.58337 3.85676,3.8068 5.91061,5.25644 0.50699,0.35784 1.28669,0.19946 1.77319,0.58405 3.95213,3.12419 -1.25067,0.53889 2.36425,2.92025 2.80919,1.85057 2.147,0.36938 4.72849,2.92024 3.07209,3.03564 -0.56031,0.60836 2.36425,2.92025 3.22332,2.54807 7.20467,4.74613 10.6391,7.00859 0.60335,0.39746 3.9164,2.11778 4.13743,2.33619 0.13931,0.13766 -0.13931,0.44639 0,0.58405 0.27864,0.27532 0.82968,-0.17413 1.18212,0 2.04565,1.01069 3.5661,2.3362 5.91062,2.3362 3.59994,-1.70883 6.65593,-4.41342 10.04805,-6.42454 4.02353,-2.38549 3.29975,-1.02181 7.09274,-4.08835 3.84859,-3.11149 6.66588,-7.56832 10.6391,-10.51288 0.70488,-0.52239 1.65937,-0.64571 2.36424,-1.1681 0.44581,-0.33039 0.6837,-0.92184 1.18213,-1.1681 0.72658,-0.35897 1.61759,-0.26785 2.36425,-0.58405 3.00551,-1.27279 5.5969,-4.07636 8.27486,-5.84049 1.00151,-0.65975 0.57025,-1.12699 1.18211,-2.33619 0.46788,-0.92465 1.78131,-1.47216 2.36425,-2.3362 1.17742,-1.74518 2.55402,-4.44971 4.13743,-5.84049 4.23072,-3.71602 3.22846,-1.58034 5.91062,-4.67239 2.19458,-2.52997 4.0903,-5.20988 6.50168,-7.59264 0.69657,-0.68831 1.62287,-1.11115 2.36424,-1.75215 2.27815,-1.96973 3.94582,-4.2057 5.91061,-6.42454 1.28435,-1.45041 2.9672,-2.54653 4.13744,-4.08834 1.63736,-2.15724 2.34461,-4.63359 3.54637,-7.00859 0.76186,-1.50567 1.51428,-3.2726 2.36425,-4.67239 0.2867,-0.47218 0.9329,-0.67559 1.18211,-1.1681 1.3733,-2.71402 1.93467,-6.69049 3.54637,-9.34479 0.28671,-0.47217 0.93291,-0.67558 1.18213,-1.16809 1.27236,-2.51453 1.68187,-5.66004 2.9553,-8.17669 0.62608,-1.2373 2.67111,-3.37508 3.54638,-4.67239 3.13301,-4.64377 6.00519,-10.0223 10.04804,-14.01718 0.69657,-0.68831 1.72315,-1.01308 2.36425,-1.75215 0.57341,-0.66104 0.66999,-1.62772 1.18212,-2.3362 0.48585,-0.67211 1.18212,-1.16809 1.77318,-1.75214 0.39404,-0.77873 0.67,-1.62772 1.18212,-2.3362 1.9596,-2.71088 4.7633,-5.31376 6.50168,-8.17669 0.32055,-0.5279 0.26085,-1.23008 0.59106,-1.75214 0.96271,-1.52207 2.61182,-2.54924 3.54637,-4.08835 0.75205,-1.23853 0.85774,-2.88224 1.77318,-4.08834 1.7115,-2.25492 3.09714,-5.43548 4.13744,-8.17669 1.12943,-2.97609 2.33616,-6.86983 2.9553,-9.92883 0.23183,-1.14542 -0.16717,-2.34794 0,-3.5043 0.11489,-0.79463 0.45752,-1.54442 0.59107,-2.33619 0.25559,-1.51537 -0.2556,-3.15702 0,-4.6724 0.19701,-1.16809 0.39404,-2.33619 0.59106,-3.50429 0.17443,-1.03414 1.00769,-1.88611 1.18212,-2.92025 0.12956,-0.76813 -0.0978,-1.56347 0,-2.33619 0.43486,-3.43764 2.38824,-6.56678 2.9553,-9.92884 0.50077,-2.96887 1.39294,-5.88136 2.36425,-8.76073 0.18691,-0.55408 -0.14335,-1.18554 0,-1.75215 0.3712,-1.46715 0.6856,-3.20047 1.18213,-4.67239 1.67749,-4.97279 2.83209,-10.02587 4.13743,-15.18528 0.64571,-2.55218 -0.43794,-5.58027 0,-8.17669 0.32816,-1.94561 0.9387,-3.91629 1.18212,-5.84049 0.4116,-3.25377 -0.46916,-6.68369 0,-9.92883 1.84819,-12.78385 2.36425,-25.49833 2.36425,-38.54724 0,-2.53611 0.75281,-12.36957 0,-14.601226 -0.68859,-2.041238 -0.007,-4.109586 -0.59106,-5.840491 -0.60772,-1.801511 -0.59106,-3.311458 -0.59106,-5.256442 -1.77319,-0.389366 -3.50625,-1.062699 -5.31956,-1.168098 -3.17138,-0.184338 -6.28372,1.018783 -9.45698,1.168098 -5.31353,0.250023 -10.6425,0.18761 -15.95866,0 -16.19275,-0.571451 -32.35516,-2.49627 -48.46705,-4.088344 -11.6551,-1.151683 -23.44548,-2.206414 -34.87263,-4.088343 -1.91695,-0.315702 -3.99365,0.315702 -5.91061,0 -6.21398,-1.023376 -11.764,-2.706714 -17.73185,-4.672393 -0.37381,-0.123128 -0.90348,0.275324 -1.18212,0 -0.13931,-0.137661 0.13932,-0.446387 0,-0.584049 -0.41794,-0.412985 -1.21245,0.184693 -1.77318,0 -0.26433,-0.08706 -0.34185,-0.460921 -0.59106,-0.584049 -1.48653,-0.734442 -4.47845,0.247071 -5.91061,-1.168098"
     id="path3" /></g><text
   xml:space="preserve"
   transform="matrix(8.9314795,0,0,8.2156556,-2135.8472,-2066.7852)"
   id="text3"
   style="text-align:start;writing-mode:lr-tb;direction:ltr;white-space:pre;shape-inside:url(#rect4);display:inline;fill:#ffffff;fill-opacity:1"><tspan
     x="257.17773"
     y="278.92257"
     id="tspan2"><tspan
       style="font-weight:bold;font-size:12px;font-family:'Sitka Display';-inkscape-font-specification:'Sitka Display, Bold'"
       id="tspan1">Baltic 
</tspan></tspan><tspan
     x="257.17773"
     y="294.28787"
     id="tspan5"><tspan
       style="font-weight:bold;font-size:12px;font-family:'Sitka Display';-inkscape-font-specification:'Sitka Display, Bold'"
       id="tspan3">
</tspan></tspan></text><text
   xml:space="preserve"
   style="font-style:normal;font-variant:normal;font-weight:bold;font-stretch:normal;font-size:102.793px;font-family:'Sitka Display';-inkscape-font-specification:'Sitka Display, Bold';font-variant-ligatures:normal;font-variant-caps:normal;font-variant-numeric:normal;font-variant-east-asian:normal;text-align:start;writing-mode:lr-tb;direction:ltr;text-anchor:start;fill:#ffffff;fill-opacity:1;stroke-width:0.595"
   x="187.31529"
   y="295.0159"
   id="text5"><tspan
     style="stroke-width:0.595;fill:#ffffff;fill-opacity:1"
     x="187.31529"
     y="295.0159"
     id="tspan6">Shield</tspan></text></svg>
